<?xml version="1.0" standalone="no"?>
<!DOCTYPE svg PUBLIC "-//W3C//DTD SVG 20010904//EN"
 "http://www.w3.org/TR/2001/REC-SVG-20010904/DTD/svg10.dtd">
<svg version="1.0" xmlns="http://www.w3.org/2000/svg"
 width="512.000000pt" height="512.000000pt" viewBox="0 0 512.000000 512.000000"
 preserveAspectRatio="xMidYMid meet">

<g transform="translate(0.000000,512.000000) scale(0.100000,-0.100000)"
fill="orangered" stroke="none">
<path d="M2253 5090 c-202 -25 -420 -90 -607 -180 -174 -84 -358 -204 -392
-255 -33 -51 -14 -113 43 -140 45 -22 68 -13 202 74 280 182 542 275 851 301
138 12 164 21 185 66 20 43 13 83 -21 115 -22 21 -36 24 -107 26 -45 1 -114
-3 -154 -7z"/>
<path d="M2735 5085 c-22 -8 -41 -15 -42 -15 -1 0 -10 -14 -19 -32 -13 -26
-14 -38 -5 -70 7 -21 23 -45 36 -54 14 -9 75 -25 137 -35 379 -65 665 -192
922 -409 48 -41 117 -99 151 -128 75 -63 117 -74 157 -43 37 29 54 83 38 122
-7 16 -52 67 -101 113 -282 269 -649 454 -1059 535 -150 30 -172 32 -215 16z"/>
<path d="M2229 4675 c-302 -47 -626 -195 -821 -374 -47 -43 -53 -53 -53 -89 0
-32 7 -48 30 -72 42 -44 86 -41 161 11 318 221 562 316 860 335 209 14 482
-37 729 -136 69 -27 138 -50 153 -50 37 0 71 26 88 66 20 49 0 94 -59 128
-112 66 -392 152 -588 181 -129 18 -380 18 -500 0z"/>
<path d="M3509 4302 c-25 -22 -32 -37 -33 -69 -1 -51 6 -59 129 -151 135 -102
223 -188 310 -303 146 -193 259 -434 351 -744 37 -126 68 -155 145 -135 82 22
88 83 28 280 -44 148 -106 305 -168 428 -106 211 -295 444 -479 590 -175 140
-223 157 -283 104z"/>
<path d="M2302 4269 c-63 -11 -127 -42 -142 -68 -19 -37 -12 -81 19 -111 l28
-29 179 1 c203 2 300 -14 485 -78 287 -99 533 -256 686 -438 158 -187 176
-200 231 -172 75 39 82 102 21 197 -65 101 -255 283 -389 372 -347 229 -837
373 -1118 326z"/>
<path d="M1900 4151 c-100 -31 -278 -148 -381 -250 -216 -217 -328 -486 -424
-1021 -21 -113 -48 -243 -61 -290 -32 -111 -101 -250 -162 -326 -28 -34 -53
-71 -56 -82 -11 -32 18 -89 55 -107 69 -36 147 22 249 188 86 139 124 268 185
616 40 231 61 321 106 448 102 288 256 473 510 611 86 47 107 66 114 108 7 36
-24 90 -61 104 -29 11 -39 11 -74 1z"/>
<path d="M1165 4052 c-98 -61 -256 -315 -334 -536 -46 -131 -73 -232 -135
-506 -59 -259 -65 -312 -41 -347 18 -26 71 -43 109 -36 46 9 63 46 106 231
115 485 150 602 225 753 49 99 85 156 162 250 64 80 70 120 26 169 -36 39 -78
47 -118 22z"/>
<path d="M2318 3839 c-308 -45 -545 -221 -673 -502 -56 -123 -125 -354 -125
-419 0 -37 40 -78 77 -79 80 -3 103 17 133 114 99 325 159 437 289 544 127
104 273 149 460 140 188 -8 342 -62 525 -184 275 -183 483 -485 581 -843 33
-122 55 -150 117 -150 84 0 119 53 98 148 -35 156 -144 416 -237 561 -151 237
-400 463 -624 565 -208 94 -434 133 -621 105z"/>
<path d="M2435 3409 c-241 -27 -449 -191 -543 -429 -47 -120 -58 -174 -118
-565 -89 -591 -216 -863 -574 -1230 -54 -55 -103 -110 -109 -122 -34 -66 13
-143 87 -143 33 0 50 8 99 50 166 141 359 392 470 615 129 256 181 445 248
895 56 379 89 483 187 586 123 130 306 172 493 113 77 -24 106 -24 138 1 31
24 50 82 38 113 -31 81 -230 136 -416 116z"/>
<path d="M3883 3269 c-40 -12 -63 -43 -63 -87 0 -19 33 -131 74 -251 78 -228
133 -430 162 -596 26 -144 26 -544 0 -793 -18 -169 -18 -185 -3 -216 19 -40
66 -60 112 -48 54 15 70 54 96 239 20 144 24 207 24 438 0 301 -9 382 -71 629
-43 173 -179 589 -207 635 -16 26 -74 65 -89 60 -2 0 -17 -5 -35 -10z"/>
<path d="M2964 3126 c-35 -35 -42 -63 -23 -97 6 -11 49 -71 95 -132 242 -319
369 -777 335 -1211 -13 -174 -30 -277 -77 -464 -89 -362 -206 -589 -435 -849
-95 -107 -108 -127 -109 -164 0 -55 67 -102 130 -91 45 9 209 198 331 382 206
311 319 665 358 1125 41 477 -43 870 -269 1245 -165 276 -251 341 -336 256z"/>
<path d="M2471 2951 c-201 -75 -339 -320 -371 -662 -8 -89 -8 -115 4 -143 25
-61 123 -73 165 -20 19 24 28 69 51 247 27 214 131 371 255 384 60 7 140 -32
196 -95 43 -49 135 -198 164 -267 70 -165 94 -285 104 -527 8 -201 15 -227 67
-250 35 -16 92 1 118 35 20 27 21 41 20 205 -1 205 -18 323 -70 481 -97 292
-246 501 -418 586 -95 48 -201 57 -285 26z"/>
<path d="M1470 2643 c-28 -25 -37 -49 -80 -214 -57 -216 -87 -304 -143 -414
-80 -161 -157 -258 -282 -361 -107 -87 -121 -113 -89 -179 46 -98 176 -50 337
126 182 198 289 422 387 809 37 150 39 163 26 195 -16 36 -60 65 -100 65 -14
0 -40 -12 -56 -27z"/>
<path d="M2554 2491 c-111 -68 -155 -256 -152 -646 1 -139 -2 -198 -16 -258
-71 -321 -251 -601 -626 -977 -85 -85 -162 -166 -172 -180 -45 -64 1 -150 81
-150 51 0 104 43 298 244 354 365 547 679 618 1006 11 51 19 164 25 350 9 276
16 360 30 360 15 0 49 -96 65 -185 14 -72 16 -124 12 -260 -7 -198 -26 -303
-93 -505 -115 -345 -306 -636 -611 -930 -137 -132 -150 -154 -127 -208 26 -62
91 -79 154 -41 53 32 286 270 377 385 331 418 513 898 513 1354 0 371 -134
660 -307 660 -21 0 -52 -9 -69 -19z"/>
<path d="M3712 2278 c-35 -38 -44 -74 -32 -137 22 -122 40 -333 40 -469 0
-222 -34 -406 -125 -677 -62 -182 -69 -217 -51 -260 20 -46 80 -66 130 -43 42
20 58 55 129 274 99 305 133 519 124 779 -5 140 -34 406 -53 480 -17 66 -118
99 -162 53z"/>
<path d="M2103 1930 c-31 -13 -51 -57 -69 -152 -52 -284 -177 -490 -529 -868
-143 -154 -187 -216 -188 -264 -2 -65 70 -112 133 -86 30 12 306 310 436 471
153 188 252 359 309 534 25 79 55 224 55 272 0 73 -76 121 -147 93z"/>
<path d="M3060 1453 c-41 -15 -62 -52 -101 -175 -130 -414 -299 -712 -583
-1024 -77 -84 -86 -99 -86 -133 0 -74 71 -120 140 -91 51 21 237 232 354 402
167 242 299 527 378 813 27 99 30 117 19 144 -19 45 -82 79 -121 64z"/>
</g>
</svg>
